<svg xmlns="http://www.w3.org/2000/svg" viewBox="0 0 32 32">
  <defs>
    <linearGradient id="seedream-grad" x1="0" y1="0" x2="32" y2="32" gradientUnits="userSpaceOnUse">
      <stop offset="0%" stop-color="#00D4AA"/>
      <stop offset="50%" stop-color="#00C8D2"/>
      <stop offset="100%" stop-color="#3C8CFF"/>
    </linearGradient>
  </defs>
  <rect width="32" height="32" rx="7" fill="url(#seedream-grad)"/>
  <path d="M10.5 10.5c0-1.38 1.12-2.5 2.5-2.5h6c1.38 0 2.5 1.12 2.5 2.5v0c0 1.38-1.12 2.5-2.5 2.5h-6c-1.38 0-2.5 1.12-2.5 2.5v0c0 1.38 1.12 2.5 2.5 2.5h6c1.38 0 2.5 1.12 2.5 2.5v0c0 1.38-1.12 2.5-2.5 2.5h-6c-1.38 0-2.5-1.12-2.5-2.5" fill="none" stroke="white" stroke-width="2.2" stroke-linecap="round" stroke-linejoin="round"/>
</svg>